<svg width="106" height="40" viewBox="0 0 106 40" fill="none" xmlns="http://www.w3.org/2000/svg">
<path d="M62.335 13.3685C62.5567 13.3685 62.7375 13.4443 62.8775 13.596C63.0292 13.736 63.105 13.9168 63.105 14.1385C63.105 14.3485 63.0292 14.5293 62.8775 14.681C62.7375 14.8327 62.5567 14.9085 62.335 14.9085H58.5725V25.4085C58.5725 25.6302 58.4967 25.8168 58.345 25.9685C58.205 26.1085 58.0242 26.1785 57.8025 26.1785C57.5925 26.1785 57.4117 26.1085 57.26 25.9685C57.1083 25.8168 57.0325 25.6302 57.0325 25.4085V14.9085H53.27C53.06 14.9085 52.8792 14.8327 52.7275 14.681C52.5758 14.5293 52.5 14.3485 52.5 14.1385C52.5 13.9168 52.5758 13.736 52.7275 13.596C52.8792 13.4443 53.06 13.3685 53.27 13.3685H62.335Z" fill="#1F2041"/>
<path d="M68.9076 13.3685C69.7943 13.3685 70.6285 13.5377 71.4101 13.876C72.2034 14.2143 72.8918 14.6752 73.4751 15.2585C74.0701 15.8418 74.5368 16.5302 74.8751 17.3235C75.2134 18.1052 75.3826 18.9393 75.3826 19.826C75.3826 20.8643 75.1609 21.821 74.7176 22.696C74.2743 23.571 73.6735 24.306 72.9151 24.901C72.9151 24.901 72.9035 24.9127 72.8801 24.936C72.3201 25.356 71.7076 25.6885 71.0426 25.9335C70.3776 26.1668 69.6659 26.2835 68.9076 26.2835C68.0209 26.2835 67.1868 26.1143 66.4051 25.776C65.6234 25.4377 64.9351 24.9768 64.3401 24.3935C63.7568 23.8102 63.2959 23.1277 62.9576 22.346C62.6193 21.5643 62.4501 20.7243 62.4501 19.826C62.4501 18.846 62.6484 17.9418 63.0451 17.1135C63.4418 16.2735 63.9843 15.556 64.6726 14.961L64.7426 14.891C64.7543 14.891 64.7718 14.8793 64.7951 14.856C65.3551 14.3893 65.9851 14.0277 66.6851 13.771C67.3851 13.5027 68.1259 13.3685 68.9076 13.3685ZM68.9076 24.7435C69.3509 24.7435 69.771 24.691 70.1676 24.586C70.576 24.4693 70.9609 24.3118 71.3226 24.1135L65.1801 16.641C64.8068 17.0727 64.5151 17.5627 64.3051 18.111C64.0951 18.6477 63.9901 19.2193 63.9901 19.826C63.9901 20.5027 64.1185 21.1385 64.3751 21.7335C64.6318 22.3285 64.9818 22.8535 65.4251 23.3085C65.8801 23.7518 66.4051 24.1018 67.0001 24.3585C67.5951 24.6152 68.2309 24.7435 68.9076 24.7435ZM72.5301 23.151C72.9384 22.7077 73.2535 22.206 73.4751 21.646C73.7085 21.0743 73.8251 20.4677 73.8251 19.826C73.8251 19.1493 73.6968 18.5135 73.4401 17.9185C73.1834 17.3235 72.8276 16.8043 72.3726 16.361C71.9293 15.906 71.4101 15.5502 70.8151 15.2935C70.2201 15.0368 69.5843 14.9085 68.9076 14.9085C68.4409 14.9085 67.9918 14.9727 67.5601 15.101C67.1284 15.2177 66.7259 15.3927 66.3526 15.626L72.5301 23.151Z" fill="#1F2041"/>
<path d="M82.351 20.631C82.1177 20.631 81.9194 20.5377 81.756 20.351L77.2585 14.576C77.1302 14.4127 77.0777 14.2318 77.101 14.0335C77.1244 13.8235 77.2177 13.6543 77.381 13.526C77.5444 13.3977 77.7252 13.351 77.9235 13.386C78.1335 13.4093 78.3027 13.5027 78.431 13.666L82.351 18.671L86.1835 13.7535C86.3119 13.5902 86.4752 13.4968 86.6735 13.4735C86.8835 13.4502 87.0702 13.5027 87.2335 13.631C87.3969 13.7593 87.4902 13.9285 87.5135 14.1385C87.5369 14.3368 87.4844 14.5177 87.356 14.681L82.946 20.351C82.7944 20.5377 82.596 20.631 82.351 20.631ZM87.2685 26.266C87.2219 26.266 87.146 26.2602 87.041 26.2485C86.9477 26.2368 86.8369 26.2077 86.7085 26.161C86.5802 26.1027 86.4402 26.0268 86.2885 25.9335C86.1485 25.8285 86.0085 25.6885 85.8685 25.5135L82.351 20.981L78.5185 25.916C78.3902 26.0793 78.221 26.1727 78.011 26.196C77.8127 26.2193 77.6319 26.1668 77.4685 26.0385C77.3052 25.9102 77.2119 25.7468 77.1885 25.5485C77.1652 25.3385 77.2177 25.1518 77.346 24.9885L81.756 19.3185C81.896 19.1318 82.0885 19.0385 82.3335 19.0385C82.5902 19.0385 82.7944 19.1318 82.946 19.3185L87.041 24.5685C87.0994 24.6502 87.1519 24.7027 87.1985 24.726C87.2452 24.7493 87.2802 24.7668 87.3035 24.7785C87.5019 24.7785 87.6652 24.8485 87.7935 24.9885C87.9335 25.1168 88.0094 25.2802 88.021 25.4785C88.0444 25.6885 87.986 25.8693 87.846 26.021C87.706 26.1727 87.531 26.2543 87.321 26.266H87.2685Z" fill="#1F2041"/>
<path d="M91.7343 26.266C91.5126 26.266 91.326 26.1902 91.1743 26.0385C91.0226 25.8868 90.9468 25.7002 90.9468 25.4785V14.1035C90.9468 13.8935 91.0226 13.7127 91.1743 13.561C91.326 13.4093 91.5126 13.3335 91.7343 13.3335C91.9443 13.3335 92.1251 13.4093 92.2768 13.561C92.4285 13.7127 92.5043 13.8935 92.5043 14.1035V25.4785C92.5043 25.7002 92.4285 25.8868 92.2768 26.0385C92.1251 26.1902 91.9443 26.266 91.7343 26.266Z" fill="#1F2041"/>
<path d="M104.938 26.231C104.681 26.231 104.483 26.1318 104.343 25.9335L97.0452 16.3435V25.4785C97.0452 25.6885 96.9693 25.8693 96.8177 26.021C96.6777 26.161 96.5027 26.231 96.2927 26.231C96.0943 26.231 95.9193 26.161 95.7677 26.021C95.616 25.8693 95.5402 25.6885 95.5402 25.4785V14.121C95.5402 13.9577 95.5868 13.8118 95.6802 13.6835C95.7735 13.5552 95.9018 13.4677 96.0652 13.421C96.2168 13.3627 96.3685 13.3568 96.5202 13.4035C96.6718 13.4502 96.8002 13.5377 96.9052 13.666L104.185 23.2735V14.121C104.185 13.9227 104.255 13.7477 104.395 13.596C104.547 13.4443 104.728 13.3685 104.938 13.3685C105.148 13.3685 105.323 13.4443 105.463 13.596C105.614 13.7477 105.69 13.9227 105.69 14.121V25.4785C105.69 25.6418 105.643 25.7877 105.55 25.916C105.457 26.0443 105.334 26.1377 105.183 26.196C105.066 26.2193 104.984 26.231 104.938 26.231Z" fill="#1F2041"/>
<path d="M19.9999 27.0587C19.3528 27.0587 18.8234 26.5292 18.8234 25.8822C18.8234 21.3528 15.1175 17.6469 10.5881 17.6469C9.94103 17.6469 9.41162 17.1175 9.41162 16.4704C9.41162 15.8234 9.94103 15.2939 10.5881 15.2939C16.441 15.2939 21.1763 20.0292 21.1763 25.8822C21.1763 26.5292 20.6469 27.0587 19.9999 27.0587Z" fill="url(#paint0_linear)"/>
<path d="M30.5882 16.4704C30.5882 17.1175 30.0588 17.6469 29.4117 17.6469C26.6176 17.6469 24.1176 19.0587 22.647 21.2057C22.3235 20.3822 21.9411 19.6175 21.4705 18.9116C23.4117 16.6763 26.2646 15.2939 29.4117 15.2939C30.0588 15.2939 30.5882 15.8234 30.5882 16.4704Z" fill="url(#paint1_linear)"/>
<path d="M20 40C8.97059 40 0 31.0294 0 20C0 8.97059 8.97059 0 20 0C31.0294 0 40 8.97059 40 20C40 31.0294 31.0294 40 20 40ZM20 2.35294C10.2647 2.35294 2.35294 10.2647 2.35294 20C2.35294 29.7353 10.2647 37.6471 20 37.6471C29.7353 37.6471 37.6471 29.7353 37.6471 20C37.6471 10.2647 29.7353 2.35294 20 2.35294Z" fill="url(#paint2_linear)"/>
<defs>
<linearGradient id="paint0_linear" x1="15.294" y1="15.2939" x2="15.294" y2="27.0587" gradientUnits="userSpaceOnUse">
<stop stop-color="#BC9CFF"/>
<stop offset="1" stop-color="#8BA4F9"/>
</linearGradient>
<linearGradient id="paint1_linear" x1="26.0293" y1="15.2939" x2="26.0293" y2="21.2057" gradientUnits="userSpaceOnUse">
<stop stop-color="#6FCF97"/>
<stop offset="1" stop-color="#66D2EA"/>
</linearGradient>
<linearGradient id="paint2_linear" x1="20" y1="0" x2="20" y2="40" gradientUnits="userSpaceOnUse">
<stop stop-color="#BC9CFF"/>
<stop offset="1" stop-color="#8BA4F9"/>
</linearGradient>
</defs>
</svg>
