<svg width="106" height="40" viewBox="0 0 106 40" fill="none" xmlns="http://www.w3.org/2000/svg"><path d="M62.335 13.368c.222 0 .402.076.542.228.152.14.228.32.228.543a.74.74 0 0 1-.227.542.705.705 0 0 1-.543.228h-3.763v10.5a.761.761 0 0 1-.227.56c-.14.14-.32.21-.542.21a.774.774 0 0 1-.543-.21.761.761 0 0 1-.227-.56v-10.5H53.27a.74.74 0 0 1-.543-.228.74.74 0 0 1-.227-.542c0-.222.076-.403.227-.543a.74.74 0 0 1 .543-.228h9.065zm6.573 0c.886 0 1.72.17 2.502.508.793.338 1.482.8 2.065 1.383a6.343 6.343 0 0 1 1.4 2.064 6.24 6.24 0 0 1 .508 2.503 6.259 6.259 0 0 1-.665 2.87 6.498 6.498 0 0 1-1.803 2.205l-.035.035a7.15 7.15 0 0 1-1.837.997 6.404 6.404 0 0 1-2.135.35 6.24 6.24 0 0 1-2.503-.507 6.753 6.753 0 0 1-2.065-1.383 6.536 6.536 0 0 1-1.382-2.047 6.276 6.276 0 0 1-.508-2.52c0-.98.198-1.884.595-2.713a6.46 6.46 0 0 1 1.628-2.152l.07-.07c.011 0 .029-.012.052-.035a6.334 6.334 0 0 1 1.89-1.085 6.16 6.16 0 0 1 2.223-.403zm0 11.376a4.91 4.91 0 0 0 1.26-.158 5.586 5.586 0 0 0 1.155-.473l-6.143-7.472a4.916 4.916 0 0 0-.875 1.47 4.664 4.664 0 0 0-.315 1.715c0 .677.128 1.313.385 1.907.257.595.607 1.12 1.05 1.575.455.444.98.794 1.575 1.05.595.257 1.23.386 1.908.386zm3.622-1.593c.408-.443.724-.945.945-1.505.234-.572.35-1.178.35-1.82a4.813 4.813 0 0 0-1.453-3.465 4.813 4.813 0 0 0-3.464-1.453c-.467 0-.916.065-1.348.193a4.462 4.462 0 0 0-1.207.525l6.177 7.525zm9.821-2.52a.762.762 0 0 1-.595-.28l-4.498-5.775a.714.714 0 0 1-.157-.543.722.722 0 0 1 .28-.507.658.658 0 0 1 .543-.14.72.72 0 0 1 .507.28l3.92 5.005 3.832-4.917a.709.709 0 0 1 .49-.28.739.739 0 0 1 .56.157.721.721 0 0 1 .28.508.713.713 0 0 1-.157.542l-4.41 5.67a.73.73 0 0 1-.595.28zm4.918 5.635a1.572 1.572 0 0 1-.56-.105 3.865 3.865 0 0 1-.42-.227 2.376 2.376 0 0 1-.42-.42L82.35 20.98l-3.832 4.935a.721.721 0 0 1-.508.28.714.714 0 0 1-.542-.158.709.709 0 0 1-.28-.49.741.741 0 0 1 .157-.56l4.41-5.67a.682.682 0 0 1 .578-.28.75.75 0 0 1 .612.28l4.095 5.25c.058.082.11.135.157.158l.106.053c.198 0 .361.07.49.21.14.128.215.291.227.49a.657.657 0 0 1-.175.542.744.744 0 0 1-.525.245h-.052zm4.465 0a.761.761 0 0 1-.56-.227.761.761 0 0 1-.227-.56V14.104c0-.21.076-.391.227-.543a.761.761 0 0 1 .56-.227.74.74 0 0 1 .543.227.74.74 0 0 1 .227.543v11.375a.761.761 0 0 1-.227.56.74.74 0 0 1-.543.227zm13.204-.035a.685.685 0 0 1-.595-.298l-7.298-9.59v9.136a.74.74 0 0 1-.227.542.712.712 0 0 1-.525.21.75.75 0 0 1-.753-.753V14.122c0-.163.047-.31.14-.438a.697.697 0 0 1 .385-.262.678.678 0 0 1 .455-.018.79.79 0 0 1 .385.263l7.28 9.607v-9.152c0-.198.07-.373.21-.525a.742.742 0 0 1 .543-.228c.21 0 .385.076.525.228a.723.723 0 0 1 .227.525v11.357c0 .164-.047.31-.14.438a.799.799 0 0 1-.367.28 1.492 1.492 0 0 1-.245.035z" fill="#1F2041"/><path d="M20 27.059a1.18 1.18 0 0 1-1.177-1.177c0-4.53-3.706-8.235-8.235-8.235a1.18 1.18 0 0 1-1.176-1.177 1.18 1.18 0 0 1 1.176-1.176 10.582 10.582 0 0 1 10.588 10.588A1.18 1.18 0 0 1 20 27.06z" fill="url(#a)"/><path d="M30.588 16.47a1.18 1.18 0 0 1-1.176 1.177 8.21 8.21 0 0 0-6.765 3.559 12.039 12.039 0 0 0-1.176-2.294 10.49 10.49 0 0 1 7.94-3.618c.648 0 1.177.53 1.177 1.176z" fill="url(#b)"/><path d="M20 40C8.97 40 0 31.03 0 20S8.97 0 20 0s20 8.97 20 20-8.97 20-20 20zm0-37.647C10.265 2.353 2.353 10.265 2.353 20S10.265 37.647 20 37.647 37.647 29.735 37.647 20 29.735 2.353 20 2.353z" fill="url(#c)"/><defs><linearGradient id="a" x1="15.294" y1="15.294" x2="15.294" y2="27.059" gradientUnits="userSpaceOnUse"><stop stop-color="#BC9CFF"/><stop offset="1" stop-color="#8BA4F9"/></linearGradient><linearGradient id="b" x1="26.029" y1="15.294" x2="26.029" y2="21.206" gradientUnits="userSpaceOnUse"><stop stop-color="#6FCF97"/><stop offset="1" stop-color="#66D2EA"/></linearGradient><linearGradient id="c" x1="20" y1="0" x2="20" y2="40" gradientUnits="userSpaceOnUse"><stop stop-color="#BC9CFF"/><stop offset="1" stop-color="#8BA4F9"/></linearGradient></defs></svg>